<?xml version="1.0" encoding="utf-8"?>
<!-- Generator: Adobe Illustrator 28.3.0, SVG Export Plug-In . SVG Version: 6.00 Build 0)  -->
<svg version="1.1" id="图层_1" xmlns="http://www.w3.org/2000/svg" xmlns:xlink="http://www.w3.org/1999/xlink" x="0px" y="0px"
	 viewBox="0 0 187 203.9" style="enable-background:new 0 0 187 203.9;" xml:space="preserve">
<style type="text/css">
	.st0{opacity:0.5;fill:#1D2A73;enable-background:new    ;}
	@media (prefers-color-scheme: dark) {
		.st0 { opacity:0.85; fill:#FFFFFF; }
	}
</style>
<path class="st0" d="M162.7,130.5c1.6-5,4.5-9.7,5.3-14.9c2.9-18.5-1.2-35.4-16.2-50.2c-2.6-2.5-5-5.1-8.2-7.2c-2.3-1.5-3-1-3.8,0.9
	c-1.3,3.4-3.9,6.1-7.4,8.2c-2,1.2-2,2.1,0.1,3.8c16.9,13.9,20.8,30.6,14.5,49c-2.4,6.8-7.5,12.6-13.2,17.9c-2.1,1.9-4.6,1.8-6.8,0.1
	c-2.1-1.6-1.2-3,0.4-4.6c7.6-7.4,13.2-15.6,13.8-25.4c0.8-13.7-4.7-25.3-17.9-34.2c-4.5-3-10.2-1.8-13.4,2.2
	c-4.2,5.3-8.3,10.5-12.6,15.8c-1.4,1.7-3.3,3.4-5.9,2.1c-4-2-5.5,0.1-7.2,2.3c-5.5,7.1-6.6,7.1-15.3,2.2c-4.9-2.8-10-5.2-14.9-7.9
	c-3.1-1.7-5.6-3.7-1.7-6.9c1.8-1.4,2.6-3.6,4-5.3c0.8-1,1.5-2.1,0.1-2.7c-5.2-2.1-3.1-5.3-1.3-7.6C62.9,58,71.1,48,79.2,38
	c4.3-5.4,8.5-10.9,13-16.3c4.1-4.9,8.9-9,16.9-9.8c3.1-0.3,6.3-0.9,8.2-3.9c1.6-2.5,4.3-2.9,7.8-0.7c4.9,3.2,10.5,5.7,15.8,8.5
	c2.6,1.4,2.8,3.4,1.1,5c-2.1,2-2,3.6-1.5,6c0.9,4.6,0.8,9.2-1.3,13.8c-1.4,3,0.1,5.8,3.3,7.8c9.2,5.7,17.2,12.3,23.2,20.4
	c7.3,9.7,11.5,20.4,12,31.7c0.4,7.8,0,15.4-2.9,23.2C172.6,128.7,171,132.1,162.7,130.5z M130.9,36.2c2.1-8.1-0.9-14.1-8-16.7
	c-7.5-2.8-17.3-1.4-21.3,3.4C89.3,38,77.2,53.2,65,68.4c-1.5,1.9-1.2,3.1,1.3,4.3c7.4,3.7,14.5,7.7,21.8,11.6c2.1,1.1,3.7,1.5,5.3-1
	c2.3-3.5,5.1-6.9,8.3-10c3.3-3.1,1.6-4.8-1.5-7C87.4,57,92,39.8,107.5,34.5C116,31.6,123.2,33.3,130.9,36.2z M117,40
	c-7.4-0.6-15.1,4.8-15.8,12.4c-0.5,6.3,8.1,13,16,13c7.8,0,15.2-6.1,15.3-12.5C132.7,45.7,125.8,40,117,40z M80.4,88.8
	c-0.9-0.6-1.5-1.2-2.2-1.6c-2.9-1.6-5.8-3.2-8.8-4.6c-1.9-0.9-3.6-3.3-6.3-0.2c-2.5,2.9-1.2,4.2,1.6,5.6c2.7,1.3,5.4,2.6,8,4
	c1.2,0.6,2.4,2.1,3.8,1.1C78,91.9,78.4,89.9,80.4,88.8z"/>
<path class="st0" d="M64.4,168.9c3.1,2.7,6.2,5.5,9.5,8c1,0.8,2.2,2,3.8,1.4c1.5-0.5,0.7-1.9,0.7-2.9c0.1-9.1,0-18.3,0-28.1
	c-8.9,4.8-14.2,11-19.4,17.4c-7,8.5-14.2,16.8-25.6,21.9c-5.6,2.5-11.7,3.6-18.1,3.8c-2.9,0.1-4.9-0.9-5.3-3.2
	c-0.4-2.5,2.1-3.6,4.6-3.6c6,0.1,6.8-2.3,6.6-6.5c-0.4-9.8-0.2-19.6,0-29.5c0.1-3.1-0.6-5-5.1-4.5c-3.7,0.4-6-1.2-5.9-4
	c0.2-2.7,2.9-3.5,6.2-3.2c11.3,1.1,21.1,4.7,28.8,11.6c5.6,5,5.6,4.9-0.1,10.4c-3.7-3.1-6.6-6.8-11-9.3c-0.7-0.4-1.3-1.2-2.4-0.9
	c-1.2,0.4-0.8,1.3-0.8,1.9c0,8.8,0,17.5,0,26.3c0,2.8,1.4,2.7,3.6,1.3c6.1-3.8,10.4-8.9,14.8-14c7.7-8.9,14.6-18.4,27.1-23.8
	c20.7-9,39.6-0.7,51.6,11.2c2.8,2.7-1.1,3.9-2.5,5.6c-2.1,2.5-3.3-0.5-4-1.1c-3.4-2.8-6.6-5.7-11.6-8.3c0,5.7,0,10.9,0,16
	s0,10.1,0,15.7c5.3-1.5,8.2-4.4,11.1-7.2c7.9-7.7,13.5-16.7,22.1-24.1c7.9-6.8,17.3-10.8,28.8-11.6c3.4-0.3,5.4,0.6,5.6,3.6
	c0.1,2.9-2.2,3.9-5.1,3.6c-5.8-0.6-6.3,1.9-6.2,5.6c0.2,9.5,0.3,19,0,28.6c-0.1,3.7,0.7,6.2,6.1,6.2c0.5,0,1.1,0.4,1.6,0.4
	c2.8,0.2,3.8,1.4,3.7,3.6c-0.2,2.5-2.2,2.9-4.6,2.9c-11.8-0.3-21.3-4.3-29.3-11.2c-3.2-2.8-6.8-4.9-2.1-8.8c1.3-1.1,2.1-1.6,3.7-0.2
	c2.9,2.6,6.1,4.9,9.1,7.4c0.7,0.5,1.4,1.2,2.4,0.9c1.5-0.4,1-1.4,1-2.3c0.1-8.6,0.1-17.2,0.2-25.8c0-0.9,0.2-1.9-1-2.4
	c-1.3-0.5-1.9,0.5-2.8,1.1c-8.1,5.3-13.3,12.5-19.2,19.2c-6.2,7.1-12.6,13.9-22.4,18.3c-14.8,6.7-31.1,3.9-42.7-3.4
	c-1.9-1.2-3.6-2.6-5.2-4C59,174.4,59,174.4,64.4,168.9z M101,163.3c0-5.4-0.1-10.9,0.1-16.3c0.1-2.6-0.7-4-4.3-3.7
	c-1.7,0.1-3.4,0.1-5.1,0c-3-0.2-4.3,0.6-4.3,3.3c0.1,11.2,0.2,22.3,0,33.5c-0.1,4.2,3.8,3.8,6.6,3.6c2.7-0.1,7.3,1,7.1-3.7
	C100.8,174.5,101,168.9,101,163.3z"/>
<path class="st0" d="M59.9,125.2c-14.6,0-29.2,0-43.8,0c-2.9,0-5.6-0.1-5.6-3c-0.1-3,2.6-3.4,5.8-3.4c29,0.1,58.1,0.1,87.1,0
	c3.3,0,6.1,0.9,6.1,3.3c0,2.8-3.1,3.1-6.2,3.1C88.8,125.2,74.4,125.2,59.9,125.2L59.9,125.2z"/>
</svg>
